# xmcd
#
# Track frame offsets:
#	150
#	19012
#	39475
#	65790
#
# Disc length: 1236 seconds
#
# Revision: 3
# Processed by: cddbd v1.5.2PL0 Copyright (c) Steve Scherf et al.
# Submitted via: audiograbber 1.83.01
#
DISCID=2f04d204
DTITLE=Keith Sweat - Just One Touch [CDM)
DYEAR=1996
DGENRE=New Jack Swing
TTITLE0=Just One Touch (Radio Edit)
TTITLE1=Just One Touch (Touch Of Silk 7 Inch)
TTITLE2=I Want Her (Street Mix)
TTITLE3=I Want Her (Final Mix)
EXTD=
EXTT0=
EXTT1=
EXTT2=
EXTT3=
PLAYORDER=
